# xmcd CD database file
#
# Track frame offsets:
#	150
#	19775
#	38935
#	61380
#	81737
#	104787
#	123390
#	145167
#	164390
#	183480
#	201977
#	220070
#
# Disc length: 3221 seconds
#
# Revision: 3
# Processed by: cddbd v1.5.2PL0 Copyright (c) Steve Scherf et al.
# Submitted via: CDex 1.70beta2
#
DISCID=b80c930c
DTITLE=石川優子 - REMEMBER
DYEAR=1987
DGENRE=Pop
TTITLE0=雨に抱かれながら
TTITLE1=あなた色のアトリエ
TTITLE2=Birthday Eve
TTITLE3=時の踊り子
TTITLE4=時の痛み
TTITLE5=ヴィーナスは泣かない
TTITLE6=よそゆきのSmilin' Face
TTITLE7=19才で唄ったラブソング
TTITLE8=雑踏
TTITLE9=レット・ミー・フライ
TTITLE10=愛を振り向かないで
TTITLE11=恋人達の聖夜
EXTD=YEAR: 1987
EXTT0=
EXTT1=
EXTT2=
EXTT3=
EXTT4=
EXTT5=
EXTT6=
EXTT7=
EXTT8=
EXTT9=
EXTT10=
EXTT11=
PLAYORDER=
